# xmcd CD database file
#
# Track frame offsets:
#	150
#	23850
#	51826
#	73877
#	117529
#	148505
#	169130
#	215632
#	242558
#	278184
#
# Disc length: 4073 seconds
#
# Revision: 0
# Processed by: cddbd v1.5.1PL0 Copyright (c) Steve Scherf et al.
# Submitted via: CDex 1.51
#
DISCID=9c0fe70a
DTITLE=Cedar Walton Trio - Midnight Waltz
DYEAR=2005
DGENRE=Jazz
TTITLE0=Bremond's Blues
TTITLE1=Turquoise
TTITLE2=Cedar's Blues
TTITLE3=Midnight Waltz
TTITLE4=Holy Land
TTITLE5=Theme For Jobim
TTITLE6=Dear Ruth
TTITLE7=The Vision
TTITLE8=Bolivia
TTITLE9=Ugetsu
EXTD=YEAR: 2005/6
EXTT0=
EXTT1=
EXTT2=
EXTT3=
EXTT4=
EXTT5=
EXTT6=
EXTT7=
EXTT8=
EXTT9=
PLAYORDER=
